<svg xmlns="http://www.w3.org/2000/svg" viewBox="0 0 800 800" role="img" aria-label="Assortiment de sushis">
  <rect width="800" height="800" fill="#1E1B16"/>
  <rect x="48" y="48" width="704" height="704" fill="#252118" stroke="rgba(242,238,230,.12)" stroke-width="1"/>
  <ellipse cx="400" cy="520" rx="280" ry="48" fill="#14110D" opacity=".55"/>
  <rect x="180" y="300" width="440" height="28" rx="14" fill="#2A2418" opacity=".8"/>
  <g transform="translate(160 220)">
    <ellipse cx="70" cy="110" rx="62" ry="44" fill="#F5F0E6"/>
    <path d="M20 95 Q70 55 120 95 L120 125 Q70 165 20 125 Z" fill="#E07A5F"/>
    <ellipse cx="70" cy="108" rx="58" ry="40" fill="none" stroke="rgba(23,20,15,.08)" stroke-width="2"/>
  </g>
  <g transform="translate(320 200)">
    <ellipse cx="80" cy="120" rx="68" ry="46" fill="#F5F0E6"/>
    <rect x="28" y="88" width="104" height="22" rx="11" fill="#C45C4A"/>
    <ellipse cx="80" cy="118" rx="64" ry="42" fill="none" stroke="rgba(23,20,15,.08)" stroke-width="2"/>
  </g>
  <g transform="translate(500 240)">
    <ellipse cx="60" cy="100" rx="54" ry="38" fill="#F5F0E6"/>
    <circle cx="60" cy="92" r="18" fill="#7CB87A" opacity=".85"/>
    <ellipse cx="60" cy="98" rx="50" ry="34" fill="none" stroke="rgba(23,20,15,.08)" stroke-width="2"/>
  </g>
  <g transform="translate(250 380)">
    <rect x="0" y="0" width="300" height="36" rx="18" fill="#1A1712" opacity=".35"/>
    <circle cx="36" cy="18" r="14" fill="#F5F0E6"/>
    <circle cx="36" cy="16" r="10" fill="#E07A5F"/>
    <circle cx="88" cy="18" r="14" fill="#F5F0E6"/>
    <circle cx="88" cy="16" r="10" fill="#C45C4A"/>
    <circle cx="140" cy="18" r="14" fill="#F5F0E6"/>
    <circle cx="140" cy="16" r="10" fill="#7CB87A"/>
    <circle cx="192" cy="18" r="14" fill="#F5F0E6"/>
    <circle cx="192" cy="16" r="10" fill="#E07A5F"/>
    <circle cx="244" cy="18" r="14" fill="#F5F0E6"/>
    <circle cx="244" cy="16" r="10" fill="#C45C4A"/>
  </g>
  <text x="400" y="680" text-anchor="middle" font-family="Georgia, serif" font-size="22" fill="rgba(242,238,230,.35)" letter-spacing="4">PLACEHOLDER</text>
</svg>
